<mxfile host="app.diagrams.net" modified="2022-06-14T08:56:25.716Z" agent="5.0 (Windows NT 10.0; Win64; x64) AppleWebKit/537.36 (KHTML, like Gecko) Chrome/102.0.5005.115 Safari/537.36" etag="cD8gKtNWRb8HQ2g0Yr7K" version="20.0.1" type="github">
  <diagram id="C5RBs43oDa-KdzZeNtuy" name="Page-1">
    <mxGraphModel dx="1422" dy="734" grid="1" gridSize="10" guides="1" tooltips="1" connect="1" arrows="1" fold="1" page="1" pageScale="1" pageWidth="827" pageHeight="1169" math="0" shadow="0">
      <root>
        <mxCell id="WIyWlLk6GJQsqaUBKTNV-0" />
        <mxCell id="WIyWlLk6GJQsqaUBKTNV-1" parent="WIyWlLk6GJQsqaUBKTNV-0" />
        <mxCell id="aIw0qYiNGt7W60hB_W8m-4" value="" style="group" vertex="1" connectable="0" parent="WIyWlLk6GJQsqaUBKTNV-1">
          <mxGeometry x="113.5" y="80" width="600" height="640" as="geometry" />
        </mxCell>
        <mxCell id="aIw0qYiNGt7W60hB_W8m-2" value="" style="rounded=0;whiteSpace=wrap;html=1;" vertex="1" parent="aIw0qYiNGt7W60hB_W8m-4">
          <mxGeometry width="600" height="640" as="geometry" />
        </mxCell>
        <mxCell id="aIw0qYiNGt7W60hB_W8m-3" value="&lt;font style=&quot;font-size: 22px;&quot;&gt;Front End Android&lt;/font&gt;" style="text;html=1;strokeColor=none;fillColor=none;align=center;verticalAlign=middle;whiteSpace=wrap;rounded=0;" vertex="1" parent="aIw0qYiNGt7W60hB_W8m-4">
          <mxGeometry x="80" y="10" width="440" height="30" as="geometry" />
        </mxCell>
        <mxCell id="aIw0qYiNGt7W60hB_W8m-15" value="" style="group" vertex="1" connectable="0" parent="aIw0qYiNGt7W60hB_W8m-4">
          <mxGeometry x="220" y="100" width="160" height="510" as="geometry" />
        </mxCell>
        <mxCell id="aIw0qYiNGt7W60hB_W8m-9" value="" style="rounded=0;whiteSpace=wrap;html=1;fontSize=22;" vertex="1" parent="aIw0qYiNGt7W60hB_W8m-15">
          <mxGeometry width="160" height="510" as="geometry" />
        </mxCell>
        <mxCell id="aIw0qYiNGt7W60hB_W8m-12" value="&lt;font style=&quot;font-size: 22px;&quot;&gt;ViewModel&lt;/font&gt;" style="text;html=1;strokeColor=none;fillColor=none;align=center;verticalAlign=middle;whiteSpace=wrap;rounded=0;" vertex="1" parent="aIw0qYiNGt7W60hB_W8m-15">
          <mxGeometry x="16" y="10" width="115" height="30" as="geometry" />
        </mxCell>
        <mxCell id="aIw0qYiNGt7W60hB_W8m-31" value="&lt;font style=&quot;font-size: 20px;&quot;&gt;Contracts&lt;/font&gt;" style="rounded=0;whiteSpace=wrap;html=1;fontSize=22;" vertex="1" parent="aIw0qYiNGt7W60hB_W8m-15">
          <mxGeometry x="20.5" y="225" width="120" height="60" as="geometry" />
        </mxCell>
        <mxCell id="aIw0qYiNGt7W60hB_W8m-47" value="&lt;font style=&quot;font-size: 20px;&quot;&gt;ViewModel&lt;/font&gt;" style="rounded=0;whiteSpace=wrap;html=1;fontSize=22;" vertex="1" parent="aIw0qYiNGt7W60hB_W8m-15">
          <mxGeometry x="20.5" y="130" width="120" height="60" as="geometry" />
        </mxCell>
        <mxCell id="aIw0qYiNGt7W60hB_W8m-102" value="Presentation Logic" style="rounded=0;whiteSpace=wrap;html=1;fontSize=20;" vertex="1" parent="aIw0qYiNGt7W60hB_W8m-15">
          <mxGeometry x="20.5" y="320" width="120" height="60" as="geometry" />
        </mxCell>
        <mxCell id="aIw0qYiNGt7W60hB_W8m-16" value="" style="group" vertex="1" connectable="0" parent="aIw0qYiNGt7W60hB_W8m-4">
          <mxGeometry x="410" y="100" width="160" height="510" as="geometry" />
        </mxCell>
        <mxCell id="aIw0qYiNGt7W60hB_W8m-8" value="" style="rounded=0;whiteSpace=wrap;html=1;fontSize=22;" vertex="1" parent="aIw0qYiNGt7W60hB_W8m-16">
          <mxGeometry width="160" height="510" as="geometry" />
        </mxCell>
        <mxCell id="aIw0qYiNGt7W60hB_W8m-13" value="&lt;font style=&quot;font-size: 22px;&quot;&gt;View&lt;/font&gt;" style="text;html=1;strokeColor=none;fillColor=none;align=center;verticalAlign=middle;whiteSpace=wrap;rounded=0;" vertex="1" parent="aIw0qYiNGt7W60hB_W8m-16">
          <mxGeometry x="30" y="10" width="115" height="30" as="geometry" />
        </mxCell>
        <mxCell id="aIw0qYiNGt7W60hB_W8m-103" value="&lt;font style=&quot;font-size: 20px;&quot;&gt;UI Logic&lt;/font&gt;" style="rounded=0;whiteSpace=wrap;html=1;fontSize=22;" vertex="1" parent="aIw0qYiNGt7W60hB_W8m-16">
          <mxGeometry x="20" y="100" width="120" height="60" as="geometry" />
        </mxCell>
        <mxCell id="aIw0qYiNGt7W60hB_W8m-124" value="&lt;font style=&quot;font-size: 20px;&quot;&gt;UI&lt;/font&gt;" style="rounded=0;whiteSpace=wrap;html=1;fontSize=22;" vertex="1" parent="aIw0qYiNGt7W60hB_W8m-16">
          <mxGeometry x="16.5" y="220" width="120" height="60" as="geometry" />
        </mxCell>
        <mxCell id="aIw0qYiNGt7W60hB_W8m-14" value="" style="group" vertex="1" connectable="0" parent="aIw0qYiNGt7W60hB_W8m-4">
          <mxGeometry x="30" y="100" width="160" height="510" as="geometry" />
        </mxCell>
        <mxCell id="aIw0qYiNGt7W60hB_W8m-10" value="" style="rounded=0;whiteSpace=wrap;html=1;fontSize=22;" vertex="1" parent="aIw0qYiNGt7W60hB_W8m-14">
          <mxGeometry width="160" height="510" as="geometry" />
        </mxCell>
        <mxCell id="aIw0qYiNGt7W60hB_W8m-11" value="&lt;font style=&quot;font-size: 22px;&quot;&gt;Model&lt;/font&gt;" style="text;html=1;strokeColor=none;fillColor=none;align=center;verticalAlign=middle;whiteSpace=wrap;rounded=0;" vertex="1" parent="aIw0qYiNGt7W60hB_W8m-14">
          <mxGeometry x="35" y="10" width="90" height="30" as="geometry" />
        </mxCell>
        <mxCell id="aIw0qYiNGt7W60hB_W8m-63" value="&lt;font style=&quot;font-size: 20px;&quot;&gt;Repository&lt;/font&gt;" style="rounded=0;whiteSpace=wrap;html=1;fontSize=22;" vertex="1" parent="aIw0qYiNGt7W60hB_W8m-14">
          <mxGeometry x="20" y="210" width="120" height="60" as="geometry" />
        </mxCell>
        <mxCell id="aIw0qYiNGt7W60hB_W8m-64" value="&lt;font style=&quot;font-size: 20px;&quot;&gt;Data Source&lt;/font&gt;" style="rounded=0;whiteSpace=wrap;html=1;fontSize=22;" vertex="1" parent="aIw0qYiNGt7W60hB_W8m-14">
          <mxGeometry x="20" y="100" width="120" height="60" as="geometry" />
        </mxCell>
        <mxCell id="aIw0qYiNGt7W60hB_W8m-83" value="&lt;font style=&quot;font-size: 20px;&quot;&gt;Business Logic&lt;/font&gt;" style="rounded=0;whiteSpace=wrap;html=1;fontSize=22;" vertex="1" parent="aIw0qYiNGt7W60hB_W8m-14">
          <mxGeometry x="20" y="310" width="120" height="60" as="geometry" />
        </mxCell>
        <mxCell id="aIw0qYiNGt7W60hB_W8m-101" value="&lt;font style=&quot;font-size: 20px;&quot;&gt;Models&lt;/font&gt;" style="rounded=0;whiteSpace=wrap;html=1;fontSize=22;" vertex="1" parent="aIw0qYiNGt7W60hB_W8m-14">
          <mxGeometry x="20" y="420" width="120" height="60" as="geometry" />
        </mxCell>
        <mxCell id="aIw0qYiNGt7W60hB_W8m-5" style="edgeStyle=orthogonalEdgeStyle;rounded=0;orthogonalLoop=1;jettySize=auto;html=1;fontSize=22;startArrow=classic;startFill=1;" edge="1" parent="WIyWlLk6GJQsqaUBKTNV-1" source="aIw0qYiNGt7W60hB_W8m-0" target="aIw0qYiNGt7W60hB_W8m-8">
          <mxGeometry relative="1" as="geometry" />
        </mxCell>
        <mxCell id="aIw0qYiNGt7W60hB_W8m-0" value="Actor" style="shape=umlActor;verticalLabelPosition=bottom;verticalAlign=top;html=1;outlineConnect=0;" vertex="1" parent="WIyWlLk6GJQsqaUBKTNV-1">
          <mxGeometry x="760" y="370" width="30" height="60" as="geometry" />
        </mxCell>
        <mxCell id="aIw0qYiNGt7W60hB_W8m-1" value="" style="outlineConnect=0;dashed=0;verticalLabelPosition=bottom;verticalAlign=top;align=center;html=1;shape=mxgraph.aws3.traditional_server;fillColor=#7D7C7C;gradientColor=none;" vertex="1" parent="WIyWlLk6GJQsqaUBKTNV-1">
          <mxGeometry x="20" y="368.5" width="46.5" height="63" as="geometry" />
        </mxCell>
        <mxCell id="aIw0qYiNGt7W60hB_W8m-7" style="edgeStyle=orthogonalEdgeStyle;rounded=0;orthogonalLoop=1;jettySize=auto;html=1;fontSize=22;startArrow=classic;startFill=1;" edge="1" parent="WIyWlLk6GJQsqaUBKTNV-1" source="aIw0qYiNGt7W60hB_W8m-10" target="aIw0qYiNGt7W60hB_W8m-1">
          <mxGeometry relative="1" as="geometry" />
        </mxCell>
      </root>
    </mxGraphModel>
  </diagram>
</mxfile>
